<mxfile host="app.diagrams.net" agent="Mozilla/5.0 (Windows NT 10.0; Win64; x64) AppleWebKit/537.36 (KHTML, like Gecko) Chrome/134.0.0.0 Safari/537.36" version="26.1.3">
  <diagram id="C5RBs43oDa-KdzZeNtuy" name="Page-1">
    <mxGraphModel dx="2261" dy="772" grid="1" gridSize="10" guides="1" tooltips="1" connect="1" arrows="1" fold="1" page="1" pageScale="1" pageWidth="827" pageHeight="1169" math="0" shadow="0">
      <root>
        <mxCell id="WIyWlLk6GJQsqaUBKTNV-0" />
        <mxCell id="WIyWlLk6GJQsqaUBKTNV-1" parent="WIyWlLk6GJQsqaUBKTNV-0" />
        <mxCell id="bwoavTPhw_IVbU03ULFL-0" value="Administrador" style="swimlane;fontStyle=1;align=center;verticalAlign=top;childLayout=stackLayout;horizontal=1;startSize=26;horizontalStack=0;resizeParent=1;resizeParentMax=0;resizeLast=0;collapsible=1;marginBottom=0;whiteSpace=wrap;html=1;" vertex="1" parent="WIyWlLk6GJQsqaUBKTNV-1">
          <mxGeometry x="-543" y="83" width="219" height="214" as="geometry" />
        </mxCell>
        <mxCell id="bwoavTPhw_IVbU03ULFL-1" value="email&lt;div&gt;&lt;br&gt;&lt;/div&gt;" style="text;strokeColor=none;fillColor=none;align=left;verticalAlign=top;spacingLeft=4;spacingRight=4;overflow=hidden;rotatable=0;points=[[0,0.5],[1,0.5]];portConstraint=eastwest;whiteSpace=wrap;html=1;" vertex="1" parent="bwoavTPhw_IVbU03ULFL-0">
          <mxGeometry y="26" width="219" height="26" as="geometry" />
        </mxCell>
        <mxCell id="bwoavTPhw_IVbU03ULFL-63" value="email&lt;div&gt;&lt;br&gt;&lt;/div&gt;" style="text;strokeColor=none;fillColor=none;align=left;verticalAlign=top;spacingLeft=4;spacingRight=4;overflow=hidden;rotatable=0;points=[[0,0.5],[1,0.5]];portConstraint=eastwest;whiteSpace=wrap;html=1;" vertex="1" parent="bwoavTPhw_IVbU03ULFL-0">
          <mxGeometry y="52" width="219" height="26" as="geometry" />
        </mxCell>
        <mxCell id="bwoavTPhw_IVbU03ULFL-2" value="&lt;div&gt;senha&lt;/div&gt;" style="text;strokeColor=none;fillColor=none;align=left;verticalAlign=top;spacingLeft=4;spacingRight=4;overflow=hidden;rotatable=0;points=[[0,0.5],[1,0.5]];portConstraint=eastwest;whiteSpace=wrap;html=1;" vertex="1" parent="bwoavTPhw_IVbU03ULFL-0">
          <mxGeometry y="78" width="219" height="26" as="geometry" />
        </mxCell>
        <mxCell id="bwoavTPhw_IVbU03ULFL-3" value="" style="line;strokeWidth=1;fillColor=none;align=left;verticalAlign=middle;spacingTop=-1;spacingLeft=3;spacingRight=3;rotatable=0;labelPosition=right;points=[];portConstraint=eastwest;strokeColor=inherit;" vertex="1" parent="bwoavTPhw_IVbU03ULFL-0">
          <mxGeometry y="104" width="219" height="8" as="geometry" />
        </mxCell>
        <mxCell id="bwoavTPhw_IVbU03ULFL-4" value="#cadastrar_tinta()&lt;div&gt;&lt;br&gt;&lt;/div&gt;&lt;div&gt;&lt;br&gt;&lt;/div&gt;" style="text;strokeColor=none;fillColor=none;align=left;verticalAlign=top;spacingLeft=4;spacingRight=4;overflow=hidden;rotatable=0;points=[[0,0.5],[1,0.5]];portConstraint=eastwest;whiteSpace=wrap;html=1;" vertex="1" parent="bwoavTPhw_IVbU03ULFL-0">
          <mxGeometry y="112" width="219" height="26" as="geometry" />
        </mxCell>
        <mxCell id="bwoavTPhw_IVbU03ULFL-5" value="remover_tinta()" style="text;strokeColor=none;fillColor=none;align=left;verticalAlign=top;spacingLeft=4;spacingRight=4;overflow=hidden;rotatable=0;points=[[0,0.5],[1,0.5]];portConstraint=eastwest;whiteSpace=wrap;html=1;" vertex="1" parent="bwoavTPhw_IVbU03ULFL-0">
          <mxGeometry y="138" width="219" height="26" as="geometry" />
        </mxCell>
        <mxCell id="bwoavTPhw_IVbU03ULFL-6" value="alterar_quantidade_de_tinta()&lt;div&gt;&lt;br&gt;&lt;/div&gt;" style="text;strokeColor=none;fillColor=none;align=left;verticalAlign=top;spacingLeft=4;spacingRight=4;overflow=hidden;rotatable=0;points=[[0,0.5],[1,0.5]];portConstraint=eastwest;whiteSpace=wrap;html=1;" vertex="1" parent="bwoavTPhw_IVbU03ULFL-0">
          <mxGeometry y="164" width="219" height="25" as="geometry" />
        </mxCell>
        <mxCell id="bwoavTPhw_IVbU03ULFL-7" value="definir_status_do_pedido()" style="text;strokeColor=none;fillColor=none;align=left;verticalAlign=top;spacingLeft=4;spacingRight=4;overflow=hidden;rotatable=0;points=[[0,0.5],[1,0.5]];portConstraint=eastwest;whiteSpace=wrap;html=1;" vertex="1" parent="bwoavTPhw_IVbU03ULFL-0">
          <mxGeometry y="189" width="219" height="25" as="geometry" />
        </mxCell>
        <mxCell id="bwoavTPhw_IVbU03ULFL-15" value="" style="rounded=0;orthogonalLoop=1;jettySize=auto;html=1;endArrow=halfCircle;endFill=0;endSize=6;strokeWidth=1;sketch=0;fontSize=12;curved=0;strokeColor=none;" edge="1" parent="WIyWlLk6GJQsqaUBKTNV-1" target="bwoavTPhw_IVbU03ULFL-16">
          <mxGeometry relative="1" as="geometry">
            <mxPoint x="15" y="514" as="sourcePoint" />
          </mxGeometry>
        </mxCell>
        <mxCell id="bwoavTPhw_IVbU03ULFL-16" value="" style="ellipse;whiteSpace=wrap;html=1;align=center;aspect=fixed;fillColor=none;strokeColor=none;resizable=0;perimeter=centerPerimeter;rotatable=0;allowArrows=0;points=[];outlineConnect=1;" vertex="1" parent="WIyWlLk6GJQsqaUBKTNV-1">
          <mxGeometry x="10" y="582" width="10" height="10" as="geometry" />
        </mxCell>
        <mxCell id="bwoavTPhw_IVbU03ULFL-52" value="&lt;p style=&quot;margin:0px;margin-top:4px;text-align:center;&quot;&gt;&lt;b&gt;Cliente&lt;/b&gt;&lt;/p&gt;&lt;hr size=&quot;1&quot; style=&quot;border-style:solid;&quot;&gt;&lt;p style=&quot;margin:0px;margin-left:4px;&quot;&gt;nome&lt;/p&gt;&lt;p style=&quot;margin:0px;margin-left:4px;&quot;&gt;email&lt;/p&gt;&lt;p style=&quot;margin:0px;margin-left:4px;&quot;&gt;telefone&lt;/p&gt;&lt;p style=&quot;margin:0px;margin-left:4px;&quot;&gt;senha&lt;br&gt;&lt;/p&gt;&lt;hr size=&quot;1&quot; style=&quot;border-style:solid;&quot;&gt;&lt;p style=&quot;margin:0px;margin-left:4px;&quot;&gt;realizar_pedido()&lt;/p&gt;&lt;p style=&quot;margin:0px;margin-left:4px;&quot;&gt;editar_dados_pessoais()&lt;/p&gt;&lt;p style=&quot;margin:0px;margin-left:4px;&quot;&gt;visualizar_pedidos()&lt;/p&gt;&lt;p style=&quot;margin:0px;margin-left:4px;&quot;&gt;realizar_cadastro()&lt;/p&gt;&lt;p style=&quot;margin:0px;margin-left:4px;&quot;&gt;realizar_login()&lt;/p&gt;&lt;p style=&quot;margin:0px;margin-left:4px;&quot;&gt;realizar_logout()&lt;/p&gt;&lt;p style=&quot;margin:0px;margin-left:4px;&quot;&gt;adicionar_tinta_lista_desejos()&lt;/p&gt;&lt;p style=&quot;margin:0px;margin-left:4px;&quot;&gt;visualizar_lista_desejos()&lt;/p&gt;" style="verticalAlign=top;align=left;overflow=fill;html=1;whiteSpace=wrap;" vertex="1" parent="WIyWlLk6GJQsqaUBKTNV-1">
          <mxGeometry x="-100" y="86" width="196" height="220" as="geometry" />
        </mxCell>
        <mxCell id="bwoavTPhw_IVbU03ULFL-53" value="Pessoa Física" style="swimlane;fontStyle=1;align=center;verticalAlign=top;childLayout=stackLayout;horizontal=1;startSize=26;horizontalStack=0;resizeParent=1;resizeParentMax=0;resizeLast=0;collapsible=1;marginBottom=0;whiteSpace=wrap;html=1;" vertex="1" parent="WIyWlLk6GJQsqaUBKTNV-1">
          <mxGeometry x="-180" y="432" width="160" height="52" as="geometry" />
        </mxCell>
        <mxCell id="bwoavTPhw_IVbU03ULFL-54" value="CPF" style="text;strokeColor=none;fillColor=none;align=left;verticalAlign=top;spacingLeft=4;spacingRight=4;overflow=hidden;rotatable=0;points=[[0,0.5],[1,0.5]];portConstraint=eastwest;whiteSpace=wrap;html=1;" vertex="1" parent="bwoavTPhw_IVbU03ULFL-53">
          <mxGeometry y="26" width="160" height="26" as="geometry" />
        </mxCell>
        <mxCell id="bwoavTPhw_IVbU03ULFL-55" value="Pessoa Jurídica" style="swimlane;fontStyle=1;align=center;verticalAlign=top;childLayout=stackLayout;horizontal=1;startSize=26;horizontalStack=0;resizeParent=1;resizeParentMax=0;resizeLast=0;collapsible=1;marginBottom=0;whiteSpace=wrap;html=1;" vertex="1" parent="WIyWlLk6GJQsqaUBKTNV-1">
          <mxGeometry x="55" y="432" width="175" height="52" as="geometry" />
        </mxCell>
        <mxCell id="bwoavTPhw_IVbU03ULFL-56" value="CNPJ" style="text;strokeColor=none;fillColor=none;align=left;verticalAlign=top;spacingLeft=4;spacingRight=4;overflow=hidden;rotatable=0;points=[[0,0.5],[1,0.5]];portConstraint=eastwest;whiteSpace=wrap;html=1;" vertex="1" parent="bwoavTPhw_IVbU03ULFL-55">
          <mxGeometry y="26" width="175" height="26" as="geometry" />
        </mxCell>
        <mxCell id="bwoavTPhw_IVbU03ULFL-57" value="Pedido" style="swimlane;fontStyle=1;align=center;verticalAlign=top;childLayout=stackLayout;horizontal=1;startSize=26;horizontalStack=0;resizeParent=1;resizeParentMax=0;resizeLast=0;collapsible=1;marginBottom=0;whiteSpace=wrap;html=1;" vertex="1" parent="WIyWlLk6GJQsqaUBKTNV-1">
          <mxGeometry x="570" y="260" width="219" height="108" as="geometry" />
        </mxCell>
        <mxCell id="bwoavTPhw_IVbU03ULFL-58" value="volume em litro&lt;div&gt;nome do solicitante&lt;/div&gt;&lt;div&gt;identificação&lt;/div&gt;&lt;div&gt;cor&lt;/div&gt;&lt;div&gt;status&lt;/div&gt;" style="text;strokeColor=none;fillColor=none;align=left;verticalAlign=top;spacingLeft=4;spacingRight=4;overflow=hidden;rotatable=0;points=[[0,0.5],[1,0.5]];portConstraint=eastwest;whiteSpace=wrap;html=1;" vertex="1" parent="bwoavTPhw_IVbU03ULFL-57">
          <mxGeometry y="26" width="219" height="82" as="geometry" />
        </mxCell>
        <mxCell id="bwoavTPhw_IVbU03ULFL-59" value="Tinta" style="swimlane;fontStyle=1;align=center;verticalAlign=top;childLayout=stackLayout;horizontal=1;startSize=26;horizontalStack=0;resizeParent=1;resizeParentMax=0;resizeLast=0;collapsible=1;marginBottom=0;whiteSpace=wrap;html=1;" vertex="1" parent="WIyWlLk6GJQsqaUBKTNV-1">
          <mxGeometry x="214" y="244" width="219" height="125" as="geometry" />
        </mxCell>
        <mxCell id="bwoavTPhw_IVbU03ULFL-60" value="identificação&lt;div&gt;cor&lt;/div&gt;&lt;div&gt;marca&lt;/div&gt;&lt;div&gt;data de vencimento&lt;/div&gt;&lt;div&gt;data de recebimento&lt;/div&gt;&lt;div&gt;volume em litro&lt;/div&gt;&lt;div&gt;&lt;br&gt;&lt;/div&gt;" style="text;strokeColor=none;fillColor=none;align=left;verticalAlign=top;spacingLeft=4;spacingRight=4;overflow=hidden;rotatable=0;points=[[0,0.5],[1,0.5]];portConstraint=eastwest;whiteSpace=wrap;html=1;" vertex="1" parent="bwoavTPhw_IVbU03ULFL-59">
          <mxGeometry y="26" width="219" height="99" as="geometry" />
        </mxCell>
        <mxCell id="bwoavTPhw_IVbU03ULFL-61" value="" style="endArrow=block;endSize=10;endFill=0;shadow=0;strokeWidth=1;rounded=0;curved=0;edgeStyle=elbowEdgeStyle;elbow=vertical;" edge="1" parent="WIyWlLk6GJQsqaUBKTNV-1">
          <mxGeometry width="160" relative="1" as="geometry">
            <mxPoint x="-101" y="431" as="sourcePoint" />
            <mxPoint x="-2" y="309.42" as="targetPoint" />
            <Array as="points">
              <mxPoint x="-50" y="382" />
              <mxPoint x="9" y="360" />
              <mxPoint x="38" y="360" />
              <mxPoint x="-101" y="381" />
            </Array>
          </mxGeometry>
        </mxCell>
        <mxCell id="bwoavTPhw_IVbU03ULFL-62" value="" style="endArrow=block;endSize=10;endFill=0;shadow=0;strokeWidth=1;rounded=0;curved=0;edgeStyle=elbowEdgeStyle;elbow=vertical;exitX=0.3;exitY=-0.009;exitDx=0;exitDy=0;exitPerimeter=0;" edge="1" parent="WIyWlLk6GJQsqaUBKTNV-1" source="bwoavTPhw_IVbU03ULFL-55">
          <mxGeometry width="160" relative="1" as="geometry">
            <mxPoint x="108" y="430" as="sourcePoint" />
            <mxPoint x="-2" y="309" as="targetPoint" />
            <Array as="points">
              <mxPoint x="53" y="382" />
            </Array>
          </mxGeometry>
        </mxCell>
        <mxCell id="bwoavTPhw_IVbU03ULFL-68" value="0..1" style="text;html=1;align=center;verticalAlign=middle;whiteSpace=wrap;rounded=0;" vertex="1" parent="WIyWlLk6GJQsqaUBKTNV-1">
          <mxGeometry x="433" y="290" width="37" height="20" as="geometry" />
        </mxCell>
        <mxCell id="bwoavTPhw_IVbU03ULFL-71" value="" style="endArrow=none;html=1;rounded=0;exitX=1;exitY=0.401;exitDx=0;exitDy=0;exitPerimeter=0;" edge="1" parent="WIyWlLk6GJQsqaUBKTNV-1" source="bwoavTPhw_IVbU03ULFL-60">
          <mxGeometry width="50" height="50" relative="1" as="geometry">
            <mxPoint x="435.19" y="306" as="sourcePoint" />
            <mxPoint x="570" y="310" as="targetPoint" />
          </mxGeometry>
        </mxCell>
        <mxCell id="bwoavTPhw_IVbU03ULFL-86" value="&lt;span style=&quot;color: rgb(0, 0, 0); font-family: Helvetica; font-size: 12px; font-style: normal; font-variant-ligatures: normal; font-variant-caps: normal; font-weight: 400; letter-spacing: normal; orphans: 2; text-align: center; text-indent: 0px; text-transform: none; widows: 2; word-spacing: 0px; -webkit-text-stroke-width: 0px; white-space: normal; background-color: rgb(251, 251, 251); text-decoration-thickness: initial; text-decoration-style: initial; text-decoration-color: initial; float: none; display: inline !important;&quot;&gt;A relação 0..1 em pedido é pq uma tinta pode existir sem um pedido&lt;/span&gt;&lt;div&gt;&lt;span style=&quot;color: rgb(0, 0, 0); font-family: Helvetica; font-size: 12px; font-style: normal; font-variant-ligatures: normal; font-variant-caps: normal; font-weight: 400; letter-spacing: normal; orphans: 2; text-align: center; text-indent: 0px; text-transform: none; widows: 2; word-spacing: 0px; -webkit-text-stroke-width: 0px; white-space: normal; background-color: rgb(251, 251, 251); text-decoration-thickness: initial; text-decoration-style: initial; text-decoration-color: initial; float: none; display: inline !important;&quot;&gt;A relação&amp;nbsp;0..* em pedido é pq o pedido pode ter mutiplas instâncias de tintas associadas à ela&lt;/span&gt;&lt;/div&gt;" style="text;whiteSpace=wrap;html=1;" vertex="1" parent="WIyWlLk6GJQsqaUBKTNV-1">
          <mxGeometry x="320" y="370" width="400" height="40" as="geometry" />
        </mxCell>
        <mxCell id="bwoavTPhw_IVbU03ULFL-89" value="" style="endArrow=none;html=1;rounded=0;entryX=0.5;entryY=0;entryDx=0;entryDy=0;" edge="1" parent="WIyWlLk6GJQsqaUBKTNV-1" target="bwoavTPhw_IVbU03ULFL-57">
          <mxGeometry width="50" height="50" relative="1" as="geometry">
            <mxPoint x="96" y="120" as="sourcePoint" />
            <mxPoint x="630" y="160" as="targetPoint" />
            <Array as="points">
              <mxPoint x="680" y="120" />
            </Array>
          </mxGeometry>
        </mxCell>
        <mxCell id="bwoavTPhw_IVbU03ULFL-90" value="0..*" style="text;html=1;align=center;verticalAlign=middle;whiteSpace=wrap;rounded=0;" vertex="1" parent="WIyWlLk6GJQsqaUBKTNV-1">
          <mxGeometry x="100" y="100" width="37" height="20" as="geometry" />
        </mxCell>
        <mxCell id="bwoavTPhw_IVbU03ULFL-92" value="0..*" style="text;html=1;align=center;verticalAlign=middle;whiteSpace=wrap;rounded=0;" vertex="1" parent="WIyWlLk6GJQsqaUBKTNV-1">
          <mxGeometry x="680" y="240" width="40" height="20" as="geometry" />
        </mxCell>
        <mxCell id="bwoavTPhw_IVbU03ULFL-93" value="0..*" style="text;html=1;align=center;verticalAlign=middle;whiteSpace=wrap;rounded=0;" vertex="1" parent="WIyWlLk6GJQsqaUBKTNV-1">
          <mxGeometry x="530" y="290" width="40" height="20" as="geometry" />
        </mxCell>
        <mxCell id="bwoavTPhw_IVbU03ULFL-94" value="" style="endArrow=none;html=1;rounded=0;entryX=0.47;entryY=-0.001;entryDx=0;entryDy=0;entryPerimeter=0;exitX=0.866;exitY=0.026;exitDx=0;exitDy=0;exitPerimeter=0;" edge="1" parent="WIyWlLk6GJQsqaUBKTNV-1" source="bwoavTPhw_IVbU03ULFL-57">
          <mxGeometry width="50" height="50" relative="1" as="geometry">
            <mxPoint x="730" y="250" as="sourcePoint" />
            <mxPoint x="-440.06999999999994" y="82.99599999999994" as="targetPoint" />
            <Array as="points">
              <mxPoint x="760" y="40" />
              <mxPoint x="-440" y="40.21" />
            </Array>
          </mxGeometry>
        </mxCell>
        <mxCell id="bwoavTPhw_IVbU03ULFL-95" value="0..*" style="text;html=1;align=center;verticalAlign=middle;whiteSpace=wrap;rounded=0;" vertex="1" parent="WIyWlLk6GJQsqaUBKTNV-1">
          <mxGeometry x="-440" y="63" width="40" height="20" as="geometry" />
        </mxCell>
        <mxCell id="bwoavTPhw_IVbU03ULFL-96" value="0..*" style="text;html=1;align=center;verticalAlign=middle;whiteSpace=wrap;rounded=0;" vertex="1" parent="WIyWlLk6GJQsqaUBKTNV-1">
          <mxGeometry x="760" y="240" width="40" height="20" as="geometry" />
        </mxCell>
      </root>
    </mxGraphModel>
  </diagram>
</mxfile>
